<svg xmlns="http://www.w3.org/2000/svg" version="1.1" xmlns:xlink="http://www.w3.org/1999/xlink" width="200" height="200"><svg xmlns="http://www.w3.org/2000/svg" version="1.1" xmlns:xlink="http://www.w3.org/1999/xlink" width="200" height="200"><svg xmlns="http://www.w3.org/2000/svg" version="1.1" xmlns:xlink="http://www.w3.org/1999/xlink" viewBox="0 0 200 200"><rect width="200" height="200" fill="url('#gradient')"></rect><defs><linearGradient id="gradient" gradientTransform="rotate(105 0.5 0.5)"><stop offset="0%" stop-color="#3fcc70"></stop><stop offset="100%" stop-color="#3fcc70"></stop></linearGradient></defs><g><g fill="#1c2e40" transform="matrix(3.448401826484018,0,0,3.448401826484018,38.68421086486616,124.5223939582093)" stroke="#3fcc70" stroke-width="0.2"><path d="M9.17-4.81L12.58-4.81Q12.51-3.33 11.78-2.19Q11.04-1.05 9.72-0.43Q8.40 0.20 6.70 0.20L6.70 0.20Q3.90 0.20 2.29-1.63Q0.67-3.46 0.67-6.79L0.67-6.79L0.67-7.49Q0.67-9.58 1.40-11.15Q2.13-12.71 3.50-13.57Q4.86-14.42 6.66-14.42L6.66-14.42Q9.25-14.42 10.82-13.06Q12.39-11.70 12.61-9.31L12.61-9.31L9.19-9.31Q9.15-10.61 8.54-11.17Q7.92-11.74 6.66-11.74L6.66-11.74Q5.38-11.74 4.79-10.78Q4.19-9.82 4.16-7.72L4.16-7.72L4.16-6.72Q4.16-4.44 4.73-3.47Q5.30-2.49 6.70-2.49L6.70-2.49Q7.88-2.49 8.51-3.05Q9.13-3.60 9.17-4.81L9.17-4.81ZM20.44 0L20.34-1.14Q19.30 0.20 17.52 0.20L17.52 0.20Q15.78 0.20 14.89-0.82Q13.99-1.83 13.99-3.72L13.99-3.72L13.99-10.57L17.29-10.57L17.29-3.70Q17.29-2.34 18.60-2.34L18.60-2.34Q19.74-2.34 20.21-3.15L20.21-3.15L20.21-10.57L23.53-10.57L23.53 0L20.44 0ZM30.44 0.20L30.44 0.20Q28.01 0.20 26.50-1.25Q25-2.71 25-5.03L25-5.03L25-5.30Q25-6.92 25.60-8.16Q26.20-9.40 27.35-10.08Q28.51-10.76 30.09-10.76L30.09-10.76Q32.31-10.76 33.60-9.38Q34.89-8.00 34.89-5.53L34.89-5.53L34.89-4.25L28.35-4.25Q28.53-3.36 29.12-2.85Q29.72-2.34 30.66-2.34L30.66-2.34Q32.23-2.34 33.11-3.44L33.11-3.44L34.61-1.66Q33.99-0.81 32.87-0.31Q31.74 0.20 30.44 0.20ZM30.07-8.22L30.07-8.22Q28.62-8.22 28.35-6.31L28.35-6.31L31.67-6.31L31.67-6.56Q31.69-7.35 31.27-7.79Q30.85-8.22 30.07-8.22Z"></path></g></g></svg></svg><style>@media (prefers-color-scheme: light) { :root { filter: none; } }
@media (prefers-color-scheme: dark) { :root { filter: none; } }
</style></svg>